<?xml version="1.0" encoding="utf-8" standalone="no"?>
<!DOCTYPE svg PUBLIC "-//W3C//DTD SVG 1.1//EN"
  "http://www.w3.org/Graphics/SVG/1.1/DTD/svg11.dtd">
<svg xmlns:xlink="http://www.w3.org/1999/xlink" width="460.8pt" height="345.6pt" viewBox="0 0 460.8 345.6" xmlns="http://www.w3.org/2000/svg" version="1.1">
 <metadata>
  <rdf:RDF xmlns:dc="http://purl.org/dc/elements/1.1/" xmlns:cc="http://creativecommons.org/ns#" xmlns:rdf="http://www.w3.org/1999/02/22-rdf-syntax-ns#">
   <cc:Work>
    <dc:type rdf:resource="http://purl.org/dc/dcmitype/StillImage"/>
    <dc:date>2022-05-18T23:01:11.060861</dc:date>
    <dc:format>image/svg+xml</dc:format>
    <dc:creator>
     <cc:Agent>
      <dc:title>Matplotlib v3.5.2, https://matplotlib.org/</dc:title>
     </cc:Agent>
    </dc:creator>
   </cc:Work>
  </rdf:RDF>
 </metadata>
 <defs>
  <style type="text/css">*{stroke-linejoin: round; stroke-linecap: butt}</style>
 </defs>
 <g id="figure_1">
  <g id="patch_1">
   <path d="M 0 345.6 
L 460.8 345.6 
L 460.8 0 
L 0 0 
z
" style="fill: #ffffff"/>
  </g>
  <g id="axes_1">
   <g id="patch_2">
    <path d="M 57.6 307.584 
L 414.72 307.584 
L 414.72 41.472 
L 57.6 41.472 
z
" style="fill: #ffffff"/>
   </g>
   <g id="matplotlib.axis_1">
    <g id="xtick_1">
     <g id="line2d_1">
      <defs>
       <path id="m666e5df6e9" d="M 0 0 
L 0 3.5 
" style="stroke: #000000; stroke-width: 0.8"/>
      </defs>
      <g>
       <use xlink:href="#m666e5df6e9" x="73.832727" y="307.584" style="stroke: #000000; stroke-width: 0.8"/>
      </g>
     </g>
     <g id="text_1">
      <!-- 0 -->
      <g transform="translate(70.651477 322.182437)scale(0.1 -0.1)">
       <defs>
        <path id="DejaVuSans-30" d="M 2034 4250 
Q 1547 4250 1301 3770 
Q 1056 3291 1056 2328 
Q 1056 1369 1301 889 
Q 1547 409 2034 409 
Q 2525 409 2770 889 
Q 3016 1369 3016 2328 
Q 3016 3291 2770 3770 
Q 2525 4250 2034 4250 
z
M 2034 4750 
Q 2819 4750 3233 4129 
Q 3647 3509 3647 2328 
Q 3647 1150 3233 529 
Q 2819 -91 2034 -91 
Q 1250 -91 836 529 
Q 422 1150 422 2328 
Q 422 3509 836 4129 
Q 1250 4750 2034 4750 
z
" transform="scale(0.015625)"/>
       </defs>
       <use xlink:href="#DejaVuSans-30"/>
      </g>
     </g>
    </g>
    <g id="xtick_2">
     <g id="line2d_2">
      <g>
       <use xlink:href="#m666e5df6e9" x="114.618474" y="307.584" style="stroke: #000000; stroke-width: 0.8"/>
      </g>
     </g>
     <g id="text_2">
      <!-- 25 -->
      <g transform="translate(108.255974 322.182437)scale(0.1 -0.1)">
       <defs>
        <path id="DejaVuSans-32" d="M 1228 531 
L 3431 531 
L 3431 0 
L 469 0 
L 469 531 
Q 828 903 1448 1529 
Q 2069 2156 2228 2338 
Q 2531 2678 2651 2914 
Q 2772 3150 2772 3378 
Q 2772 3750 2511 3984 
Q 2250 4219 1831 4219 
Q 1534 4219 1204 4116 
Q 875 4013 500 3803 
L 500 4441 
Q 881 4594 1212 4672 
Q 1544 4750 1819 4750 
Q 2544 4750 2975 4387 
Q 3406 4025 3406 3419 
Q 3406 3131 3298 2873 
Q 3191 2616 2906 2266 
Q 2828 2175 2409 1742 
Q 1991 1309 1228 531 
z
" transform="scale(0.015625)"/>
        <path id="DejaVuSans-35" d="M 691 4666 
L 3169 4666 
L 3169 4134 
L 1269 4134 
L 1269 2991 
Q 1406 3038 1543 3061 
Q 1681 3084 1819 3084 
Q 2600 3084 3056 2656 
Q 3513 2228 3513 1497 
Q 3513 744 3044 326 
Q 2575 -91 1722 -91 
Q 1428 -91 1123 -41 
Q 819 9 494 109 
L 494 744 
Q 775 591 1075 516 
Q 1375 441 1709 441 
Q 2250 441 2565 725 
Q 2881 1009 2881 1497 
Q 2881 1984 2565 2268 
Q 2250 2553 1709 2553 
Q 1456 2553 1204 2497 
Q 953 2441 691 2322 
L 691 4666 
z
" transform="scale(0.015625)"/>
       </defs>
       <use xlink:href="#DejaVuSans-32"/>
       <use xlink:href="#DejaVuSans-35" x="63.623047"/>
      </g>
     </g>
    </g>
    <g id="xtick_3">
     <g id="line2d_3">
      <g>
       <use xlink:href="#m666e5df6e9" x="155.404221" y="307.584" style="stroke: #000000; stroke-width: 0.8"/>
      </g>
     </g>
     <g id="text_3">
      <!-- 50 -->
      <g transform="translate(149.041721 322.182437)scale(0.1 -0.1)">
       <use xlink:href="#DejaVuSans-35"/>
       <use xlink:href="#DejaVuSans-30" x="63.623047"/>
      </g>
     </g>
    </g>
    <g id="xtick_4">
     <g id="line2d_4">
      <g>
       <use xlink:href="#m666e5df6e9" x="196.189968" y="307.584" style="stroke: #000000; stroke-width: 0.8"/>
      </g>
     </g>
     <g id="text_4">
      <!-- 75 -->
      <g transform="translate(189.827468 322.182437)scale(0.1 -0.1)">
       <defs>
        <path id="DejaVuSans-37" d="M 525 4666 
L 3525 4666 
L 3525 4397 
L 1831 0 
L 1172 0 
L 2766 4134 
L 525 4134 
L 525 4666 
z
" transform="scale(0.015625)"/>
       </defs>
       <use xlink:href="#DejaVuSans-37"/>
       <use xlink:href="#DejaVuSans-35" x="63.623047"/>
      </g>
     </g>
    </g>
    <g id="xtick_5">
     <g id="line2d_5">
      <g>
       <use xlink:href="#m666e5df6e9" x="236.975715" y="307.584" style="stroke: #000000; stroke-width: 0.8"/>
      </g>
     </g>
     <g id="text_5">
      <!-- 100 -->
      <g transform="translate(227.431965 322.182437)scale(0.1 -0.1)">
       <defs>
        <path id="DejaVuSans-31" d="M 794 531 
L 1825 531 
L 1825 4091 
L 703 3866 
L 703 4441 
L 1819 4666 
L 2450 4666 
L 2450 531 
L 3481 531 
L 3481 0 
L 794 0 
L 794 531 
z
" transform="scale(0.015625)"/>
       </defs>
       <use xlink:href="#DejaVuSans-31"/>
       <use xlink:href="#DejaVuSans-30" x="63.623047"/>
       <use xlink:href="#DejaVuSans-30" x="127.246094"/>
      </g>
     </g>
    </g>
    <g id="xtick_6">
     <g id="line2d_6">
      <g>
       <use xlink:href="#m666e5df6e9" x="277.761462" y="307.584" style="stroke: #000000; stroke-width: 0.8"/>
      </g>
     </g>
     <g id="text_6">
      <!-- 125 -->
      <g transform="translate(268.217712 322.182437)scale(0.1 -0.1)">
       <use xlink:href="#DejaVuSans-31"/>
       <use xlink:href="#DejaVuSans-32" x="63.623047"/>
       <use xlink:href="#DejaVuSans-35" x="127.246094"/>
      </g>
     </g>
    </g>
    <g id="xtick_7">
     <g id="line2d_7">
      <g>
       <use xlink:href="#m666e5df6e9" x="318.547209" y="307.584" style="stroke: #000000; stroke-width: 0.8"/>
      </g>
     </g>
     <g id="text_7">
      <!-- 150 -->
      <g transform="translate(309.003459 322.182437)scale(0.1 -0.1)">
       <use xlink:href="#DejaVuSans-31"/>
       <use xlink:href="#DejaVuSans-35" x="63.623047"/>
       <use xlink:href="#DejaVuSans-30" x="127.246094"/>
      </g>
     </g>
    </g>
    <g id="xtick_8">
     <g id="line2d_8">
      <g>
       <use xlink:href="#m666e5df6e9" x="359.332956" y="307.584" style="stroke: #000000; stroke-width: 0.8"/>
      </g>
     </g>
     <g id="text_8">
      <!-- 175 -->
      <g transform="translate(349.789206 322.182437)scale(0.1 -0.1)">
       <use xlink:href="#DejaVuSans-31"/>
       <use xlink:href="#DejaVuSans-37" x="63.623047"/>
       <use xlink:href="#DejaVuSans-35" x="127.246094"/>
      </g>
     </g>
    </g>
    <g id="xtick_9">
     <g id="line2d_9">
      <g>
       <use xlink:href="#m666e5df6e9" x="400.118703" y="307.584" style="stroke: #000000; stroke-width: 0.8"/>
      </g>
     </g>
     <g id="text_9">
      <!-- 200 -->
      <g transform="translate(390.574953 322.182437)scale(0.1 -0.1)">
       <use xlink:href="#DejaVuSans-32"/>
       <use xlink:href="#DejaVuSans-30" x="63.623047"/>
       <use xlink:href="#DejaVuSans-30" x="127.246094"/>
      </g>
     </g>
    </g>
   </g>
   <g id="matplotlib.axis_2">
    <g id="ytick_1">
     <g id="line2d_10">
      <defs>
       <path id="mea4ee1844f" d="M 0 0 
L -3.5 0 
" style="stroke: #000000; stroke-width: 0.8"/>
      </defs>
      <g>
       <use xlink:href="#mea4ee1844f" x="57.6" y="295.488" style="stroke: #000000; stroke-width: 0.8"/>
      </g>
     </g>
     <g id="text_10">
      <!-- 508 -->
      <g transform="translate(31.5125 299.287219)scale(0.1 -0.1)">
       <defs>
        <path id="DejaVuSans-38" d="M 2034 2216 
Q 1584 2216 1326 1975 
Q 1069 1734 1069 1313 
Q 1069 891 1326 650 
Q 1584 409 2034 409 
Q 2484 409 2743 651 
Q 3003 894 3003 1313 
Q 3003 1734 2745 1975 
Q 2488 2216 2034 2216 
z
M 1403 2484 
Q 997 2584 770 2862 
Q 544 3141 544 3541 
Q 544 4100 942 4425 
Q 1341 4750 2034 4750 
Q 2731 4750 3128 4425 
Q 3525 4100 3525 3541 
Q 3525 3141 3298 2862 
Q 3072 2584 2669 2484 
Q 3125 2378 3379 2068 
Q 3634 1759 3634 1313 
Q 3634 634 3220 271 
Q 2806 -91 2034 -91 
Q 1263 -91 848 271 
Q 434 634 434 1313 
Q 434 1759 690 2068 
Q 947 2378 1403 2484 
z
M 1172 3481 
Q 1172 3119 1398 2916 
Q 1625 2713 2034 2713 
Q 2441 2713 2670 2916 
Q 2900 3119 2900 3481 
Q 2900 3844 2670 4047 
Q 2441 4250 2034 4250 
Q 1625 4250 1398 4047 
Q 1172 3844 1172 3481 
z
" transform="scale(0.015625)"/>
       </defs>
       <use xlink:href="#DejaVuSans-35"/>
       <use xlink:href="#DejaVuSans-30" x="63.623047"/>
       <use xlink:href="#DejaVuSans-38" x="127.246094"/>
      </g>
     </g>
    </g>
    <g id="ytick_2">
     <g id="line2d_11">
      <g>
       <use xlink:href="#mea4ee1844f" x="57.6" y="247.104" style="stroke: #000000; stroke-width: 0.8"/>
      </g>
     </g>
     <g id="text_11">
      <!-- 509 -->
      <g transform="translate(31.5125 250.903219)scale(0.1 -0.1)">
       <defs>
        <path id="DejaVuSans-39" d="M 703 97 
L 703 672 
Q 941 559 1184 500 
Q 1428 441 1663 441 
Q 2288 441 2617 861 
Q 2947 1281 2994 2138 
Q 2813 1869 2534 1725 
Q 2256 1581 1919 1581 
Q 1219 1581 811 2004 
Q 403 2428 403 3163 
Q 403 3881 828 4315 
Q 1253 4750 1959 4750 
Q 2769 4750 3195 4129 
Q 3622 3509 3622 2328 
Q 3622 1225 3098 567 
Q 2575 -91 1691 -91 
Q 1453 -91 1209 -44 
Q 966 3 703 97 
z
M 1959 2075 
Q 2384 2075 2632 2365 
Q 2881 2656 2881 3163 
Q 2881 3666 2632 3958 
Q 2384 4250 1959 4250 
Q 1534 4250 1286 3958 
Q 1038 3666 1038 3163 
Q 1038 2656 1286 2365 
Q 1534 2075 1959 2075 
z
" transform="scale(0.015625)"/>
       </defs>
       <use xlink:href="#DejaVuSans-35"/>
       <use xlink:href="#DejaVuSans-30" x="63.623047"/>
       <use xlink:href="#DejaVuSans-39" x="127.246094"/>
      </g>
     </g>
    </g>
    <g id="ytick_3">
     <g id="line2d_12">
      <g>
       <use xlink:href="#mea4ee1844f" x="57.6" y="198.72" style="stroke: #000000; stroke-width: 0.8"/>
      </g>
     </g>
     <g id="text_12">
      <!-- 510 -->
      <g transform="translate(31.5125 202.519219)scale(0.1 -0.1)">
       <use xlink:href="#DejaVuSans-35"/>
       <use xlink:href="#DejaVuSans-31" x="63.623047"/>
       <use xlink:href="#DejaVuSans-30" x="127.246094"/>
      </g>
     </g>
    </g>
    <g id="ytick_4">
     <g id="line2d_13">
      <g>
       <use xlink:href="#mea4ee1844f" x="57.6" y="150.336" style="stroke: #000000; stroke-width: 0.8"/>
      </g>
     </g>
     <g id="text_13">
      <!-- 511 -->
      <g transform="translate(31.5125 154.135219)scale(0.1 -0.1)">
       <use xlink:href="#DejaVuSans-35"/>
       <use xlink:href="#DejaVuSans-31" x="63.623047"/>
       <use xlink:href="#DejaVuSans-31" x="127.246094"/>
      </g>
     </g>
    </g>
    <g id="ytick_5">
     <g id="line2d_14">
      <g>
       <use xlink:href="#mea4ee1844f" x="57.6" y="101.952" style="stroke: #000000; stroke-width: 0.8"/>
      </g>
     </g>
     <g id="text_14">
      <!-- 512 -->
      <g transform="translate(31.5125 105.751219)scale(0.1 -0.1)">
       <use xlink:href="#DejaVuSans-35"/>
       <use xlink:href="#DejaVuSans-31" x="63.623047"/>
       <use xlink:href="#DejaVuSans-32" x="127.246094"/>
      </g>
     </g>
    </g>
    <g id="ytick_6">
     <g id="line2d_15">
      <g>
       <use xlink:href="#mea4ee1844f" x="57.6" y="53.568" style="stroke: #000000; stroke-width: 0.8"/>
      </g>
     </g>
     <g id="text_15">
      <!-- 513 -->
      <g transform="translate(31.5125 57.367219)scale(0.1 -0.1)">
       <defs>
        <path id="DejaVuSans-33" d="M 2597 2516 
Q 3050 2419 3304 2112 
Q 3559 1806 3559 1356 
Q 3559 666 3084 287 
Q 2609 -91 1734 -91 
Q 1441 -91 1130 -33 
Q 819 25 488 141 
L 488 750 
Q 750 597 1062 519 
Q 1375 441 1716 441 
Q 2309 441 2620 675 
Q 2931 909 2931 1356 
Q 2931 1769 2642 2001 
Q 2353 2234 1838 2234 
L 1294 2234 
L 1294 2753 
L 1863 2753 
Q 2328 2753 2575 2939 
Q 2822 3125 2822 3475 
Q 2822 3834 2567 4026 
Q 2313 4219 1838 4219 
Q 1578 4219 1281 4162 
Q 984 4106 628 3988 
L 628 4550 
Q 988 4650 1302 4700 
Q 1616 4750 1894 4750 
Q 2613 4750 3031 4423 
Q 3450 4097 3450 3541 
Q 3450 3153 3228 2886 
Q 3006 2619 2597 2516 
z
" transform="scale(0.015625)"/>
       </defs>
       <use xlink:href="#DejaVuSans-35"/>
       <use xlink:href="#DejaVuSans-31" x="63.623047"/>
       <use xlink:href="#DejaVuSans-33" x="127.246094"/>
      </g>
     </g>
    </g>
   </g>
   <g id="line2d_16">
    <path d="M 73.832727 101.952 
L 75.464157 101.952 
L 75.464157 150.336 
L 77.095587 150.336 
L 77.095587 101.952 
L 78.727017 101.952 
L 78.727017 247.104 
L 80.358447 247.104 
L 80.358447 150.336 
L 81.989877 150.336 
L 81.989877 101.952 
L 85.252736 101.952 
L 85.252736 150.336 
L 88.515596 150.336 
L 88.515596 198.72 
L 91.778456 198.72 
L 91.778456 101.952 
L 95.041316 101.952 
L 95.041316 150.336 
L 98.304175 150.336 
L 98.304175 247.104 
L 101.567035 247.104 
L 101.567035 101.952 
L 104.829895 101.952 
L 104.829895 150.336 
L 108.092755 150.336 
L 108.092755 198.72 
L 109.724185 198.72 
L 109.724185 150.336 
L 111.355614 150.336 
L 111.355614 101.952 
L 114.618474 101.952 
L 114.618474 150.336 
L 117.881334 150.336 
L 117.881334 101.952 
L 119.512764 101.952 
L 119.512764 150.336 
L 121.144194 150.336 
L 121.144194 247.104 
L 122.775624 247.104 
L 122.775624 101.952 
L 124.407053 101.952 
L 124.407053 150.336 
L 130.932773 150.336 
L 130.932773 247.104 
L 132.564203 247.104 
L 132.564203 150.336 
L 137.458492 150.336 
L 137.458492 101.952 
L 139.089922 101.952 
L 139.089922 198.72 
L 140.721352 198.72 
L 140.721352 247.104 
L 142.352782 247.104 
L 142.352782 101.952 
L 150.509931 101.952 
L 150.509931 247.104 
L 152.141361 247.104 
L 152.141361 101.952 
L 153.772791 101.952 
L 153.772791 150.336 
L 155.404221 150.336 
L 155.404221 101.952 
L 157.035651 101.952 
L 157.035651 53.568 
L 158.667081 53.568 
L 158.667081 150.336 
L 160.298511 150.336 
L 160.298511 247.104 
L 161.929941 247.104 
L 161.929941 101.952 
L 163.56137 101.952 
L 163.56137 150.336 
L 165.1928 150.336 
L 165.1928 101.952 
L 166.82423 101.952 
L 166.82423 150.336 
L 168.45566 150.336 
L 168.45566 101.952 
L 170.08709 101.952 
L 170.08709 247.104 
L 171.71852 247.104 
L 171.71852 101.952 
L 173.34995 101.952 
L 173.34995 150.336 
L 174.98138 150.336 
L 174.98138 101.952 
L 179.875669 101.952 
L 179.875669 247.104 
L 181.507099 247.104 
L 181.507099 150.336 
L 184.769959 150.336 
L 184.769959 101.952 
L 186.401389 101.952 
L 186.401389 150.336 
L 189.664249 150.336 
L 189.664249 247.104 
L 191.295678 247.104 
L 191.295678 150.336 
L 192.927108 150.336 
L 192.927108 101.952 
L 194.558538 101.952 
L 194.558538 53.568 
L 196.189968 53.568 
L 196.189968 101.952 
L 197.821398 101.952 
L 197.821398 150.336 
L 199.452828 150.336 
L 199.452828 198.72 
L 201.084258 198.72 
L 201.084258 150.336 
L 205.978547 150.336 
L 205.978547 101.952 
L 207.609977 101.952 
L 207.609977 150.336 
L 209.241407 150.336 
L 209.241407 247.104 
L 210.872837 247.104 
L 210.872837 150.336 
L 215.767127 150.336 
L 215.767127 101.952 
L 217.398556 101.952 
L 217.398556 150.336 
L 219.029986 150.336 
L 219.029986 247.104 
L 220.661416 247.104 
L 220.661416 198.72 
L 222.292846 198.72 
L 222.292846 150.336 
L 228.818566 150.336 
L 228.818566 198.72 
L 232.081425 198.72 
L 232.081425 101.952 
L 233.712855 101.952 
L 233.712855 53.568 
L 235.344285 53.568 
L 235.344285 101.952 
L 238.607145 101.952 
L 238.607145 198.72 
L 241.870005 198.72 
L 241.870005 150.336 
L 245.132864 150.336 
L 245.132864 101.952 
L 248.395724 101.952 
L 248.395724 198.72 
L 251.658584 198.72 
L 251.658584 101.952 
L 258.184303 101.952 
L 258.184303 198.72 
L 261.447163 198.72 
L 261.447163 150.336 
L 264.710023 150.336 
L 264.710023 101.952 
L 267.972883 101.952 
L 267.972883 150.336 
L 269.604312 150.336 
L 269.604312 247.104 
L 271.235742 247.104 
L 271.235742 150.336 
L 276.130032 150.336 
L 276.130032 101.952 
L 277.761462 101.952 
L 277.761462 198.72 
L 279.392892 198.72 
L 279.392892 247.104 
L 281.024322 247.104 
L 281.024322 101.952 
L 282.655751 101.952 
L 282.655751 150.336 
L 284.287181 150.336 
L 284.287181 101.952 
L 287.550041 101.952 
L 287.550041 150.336 
L 289.181471 150.336 
L 289.181471 247.104 
L 290.812901 247.104 
L 290.812901 101.952 
L 294.075761 101.952 
L 294.075761 150.336 
L 295.70719 150.336 
L 295.70719 53.568 
L 297.33862 53.568 
L 297.33862 150.336 
L 298.97005 150.336 
L 298.97005 247.104 
L 300.60148 247.104 
L 300.60148 101.952 
L 302.23291 101.952 
L 302.23291 150.336 
L 303.86434 150.336 
L 303.86434 101.952 
L 308.75863 101.952 
L 308.75863 247.104 
L 310.390059 247.104 
L 310.390059 150.336 
L 313.652919 150.336 
L 313.652919 101.952 
L 316.915779 101.952 
L 316.915779 150.336 
L 318.547209 150.336 
L 318.547209 247.104 
L 320.178639 247.104 
L 320.178639 150.336 
L 321.810069 150.336 
L 321.810069 101.952 
L 323.441498 101.952 
L 323.441498 150.336 
L 325.072928 150.336 
L 325.072928 101.952 
L 326.704358 101.952 
L 326.704358 150.336 
L 329.967218 150.336 
L 329.967218 198.72 
L 333.230078 198.72 
L 333.230078 101.952 
L 336.492937 101.952 
L 336.492937 150.336 
L 339.755797 150.336 
L 339.755797 198.72 
L 341.387227 198.72 
L 341.387227 247.104 
L 343.018657 247.104 
L 343.018657 150.336 
L 344.650087 150.336 
L 344.650087 101.952 
L 346.281517 101.952 
L 346.281517 247.104 
L 347.912947 247.104 
L 347.912947 101.952 
L 349.544376 101.952 
L 349.544376 198.72 
L 352.807236 198.72 
L 352.807236 101.952 
L 354.438666 101.952 
L 354.438666 150.336 
L 360.964386 150.336 
L 360.964386 295.488 
L 362.595815 295.488 
L 362.595815 101.952 
L 364.227245 101.952 
L 364.227245 150.336 
L 365.858675 150.336 
L 365.858675 101.952 
L 369.121535 101.952 
L 369.121535 198.72 
L 372.384395 198.72 
L 372.384395 101.952 
L 374.015825 101.952 
L 374.015825 150.336 
L 375.647254 150.336 
L 375.647254 101.952 
L 378.910114 101.952 
L 378.910114 150.336 
L 380.541544 150.336 
L 380.541544 247.104 
L 382.172974 247.104 
L 382.172974 198.72 
L 383.804404 198.72 
L 383.804404 150.336 
L 387.067264 150.336 
L 387.067264 101.952 
L 388.698693 101.952 
L 388.698693 150.336 
L 390.330123 150.336 
L 390.330123 247.104 
L 391.961553 247.104 
L 391.961553 101.952 
L 398.487273 101.952 
L 398.487273 150.336 
L 398.487273 150.336 
" clip-path="url(#p8eb9cbc5d5)" style="fill: none; stroke: #1f77b4; stroke-width: 1.5; stroke-linecap: square"/>
   </g>
   <g id="patch_3">
    <path d="M 57.6 307.584 
L 57.6 41.472 
" style="fill: none; stroke: #000000; stroke-width: 0.8; stroke-linejoin: miter; stroke-linecap: square"/>
   </g>
   <g id="patch_4">
    <path d="M 414.72 307.584 
L 414.72 41.472 
" style="fill: none; stroke: #000000; stroke-width: 0.8; stroke-linejoin: miter; stroke-linecap: square"/>
   </g>
   <g id="patch_5">
    <path d="M 57.6 307.584 
L 414.72 307.584 
" style="fill: none; stroke: #000000; stroke-width: 0.8; stroke-linejoin: miter; stroke-linecap: square"/>
   </g>
   <g id="patch_6">
    <path d="M 57.6 41.472 
L 414.72 41.472 
" style="fill: none; stroke: #000000; stroke-width: 0.8; stroke-linejoin: miter; stroke-linecap: square"/>
   </g>
  </g>
 </g>
 <defs>
  <clipPath id="p8eb9cbc5d5">
   <rect x="57.6" y="41.472" width="357.12" height="266.112"/>
  </clipPath>
 </defs>
</svg>
