<?xml version="1.0" encoding="utf-8" standalone="no"?>
<!DOCTYPE svg PUBLIC "-//W3C//DTD SVG 1.1//EN"
  "http://www.w3.org/Graphics/SVG/1.1/DTD/svg11.dtd">
<svg xmlns:xlink="http://www.w3.org/1999/xlink" width="460.8pt" height="345.6pt" viewBox="0 0 460.8 345.6" xmlns="http://www.w3.org/2000/svg" version="1.1">
 <metadata>
  <rdf:RDF xmlns:dc="http://purl.org/dc/elements/1.1/" xmlns:cc="http://creativecommons.org/ns#" xmlns:rdf="http://www.w3.org/1999/02/22-rdf-syntax-ns#">
   <cc:Work>
    <dc:type rdf:resource="http://purl.org/dc/dcmitype/StillImage"/>
    <dc:date>2022-05-18T23:00:18.790394</dc:date>
    <dc:format>image/svg+xml</dc:format>
    <dc:creator>
     <cc:Agent>
      <dc:title>Matplotlib v3.5.2, https://matplotlib.org/</dc:title>
     </cc:Agent>
    </dc:creator>
   </cc:Work>
  </rdf:RDF>
 </metadata>
 <defs>
  <style type="text/css">*{stroke-linejoin: round; stroke-linecap: butt}</style>
 </defs>
 <g id="figure_1">
  <g id="patch_1">
   <path d="M 0 345.6 
L 460.8 345.6 
L 460.8 0 
L 0 0 
z
" style="fill: #ffffff"/>
  </g>
  <g id="axes_1">
   <g id="patch_2">
    <path d="M 57.6 307.584 
L 414.72 307.584 
L 414.72 41.472 
L 57.6 41.472 
z
" style="fill: #ffffff"/>
   </g>
   <g id="matplotlib.axis_1">
    <g id="xtick_1">
     <g id="line2d_1">
      <defs>
       <path id="m207ba4c920" d="M 0 0 
L 0 3.5 
" style="stroke: #000000; stroke-width: 0.8"/>
      </defs>
      <g>
       <use xlink:href="#m207ba4c920" x="73.832727" y="307.584" style="stroke: #000000; stroke-width: 0.8"/>
      </g>
     </g>
     <g id="text_1">
      <!-- 0 -->
      <g transform="translate(70.651477 322.182437)scale(0.1 -0.1)">
       <defs>
        <path id="DejaVuSans-30" d="M 2034 4250 
Q 1547 4250 1301 3770 
Q 1056 3291 1056 2328 
Q 1056 1369 1301 889 
Q 1547 409 2034 409 
Q 2525 409 2770 889 
Q 3016 1369 3016 2328 
Q 3016 3291 2770 3770 
Q 2525 4250 2034 4250 
z
M 2034 4750 
Q 2819 4750 3233 4129 
Q 3647 3509 3647 2328 
Q 3647 1150 3233 529 
Q 2819 -91 2034 -91 
Q 1250 -91 836 529 
Q 422 1150 422 2328 
Q 422 3509 836 4129 
Q 1250 4750 2034 4750 
z
" transform="scale(0.015625)"/>
       </defs>
       <use xlink:href="#DejaVuSans-30"/>
      </g>
     </g>
    </g>
    <g id="xtick_2">
     <g id="line2d_2">
      <g>
       <use xlink:href="#m207ba4c920" x="114.618474" y="307.584" style="stroke: #000000; stroke-width: 0.8"/>
      </g>
     </g>
     <g id="text_2">
      <!-- 25 -->
      <g transform="translate(108.255974 322.182437)scale(0.1 -0.1)">
       <defs>
        <path id="DejaVuSans-32" d="M 1228 531 
L 3431 531 
L 3431 0 
L 469 0 
L 469 531 
Q 828 903 1448 1529 
Q 2069 2156 2228 2338 
Q 2531 2678 2651 2914 
Q 2772 3150 2772 3378 
Q 2772 3750 2511 3984 
Q 2250 4219 1831 4219 
Q 1534 4219 1204 4116 
Q 875 4013 500 3803 
L 500 4441 
Q 881 4594 1212 4672 
Q 1544 4750 1819 4750 
Q 2544 4750 2975 4387 
Q 3406 4025 3406 3419 
Q 3406 3131 3298 2873 
Q 3191 2616 2906 2266 
Q 2828 2175 2409 1742 
Q 1991 1309 1228 531 
z
" transform="scale(0.015625)"/>
        <path id="DejaVuSans-35" d="M 691 4666 
L 3169 4666 
L 3169 4134 
L 1269 4134 
L 1269 2991 
Q 1406 3038 1543 3061 
Q 1681 3084 1819 3084 
Q 2600 3084 3056 2656 
Q 3513 2228 3513 1497 
Q 3513 744 3044 326 
Q 2575 -91 1722 -91 
Q 1428 -91 1123 -41 
Q 819 9 494 109 
L 494 744 
Q 775 591 1075 516 
Q 1375 441 1709 441 
Q 2250 441 2565 725 
Q 2881 1009 2881 1497 
Q 2881 1984 2565 2268 
Q 2250 2553 1709 2553 
Q 1456 2553 1204 2497 
Q 953 2441 691 2322 
L 691 4666 
z
" transform="scale(0.015625)"/>
       </defs>
       <use xlink:href="#DejaVuSans-32"/>
       <use xlink:href="#DejaVuSans-35" x="63.623047"/>
      </g>
     </g>
    </g>
    <g id="xtick_3">
     <g id="line2d_3">
      <g>
       <use xlink:href="#m207ba4c920" x="155.404221" y="307.584" style="stroke: #000000; stroke-width: 0.8"/>
      </g>
     </g>
     <g id="text_3">
      <!-- 50 -->
      <g transform="translate(149.041721 322.182437)scale(0.1 -0.1)">
       <use xlink:href="#DejaVuSans-35"/>
       <use xlink:href="#DejaVuSans-30" x="63.623047"/>
      </g>
     </g>
    </g>
    <g id="xtick_4">
     <g id="line2d_4">
      <g>
       <use xlink:href="#m207ba4c920" x="196.189968" y="307.584" style="stroke: #000000; stroke-width: 0.8"/>
      </g>
     </g>
     <g id="text_4">
      <!-- 75 -->
      <g transform="translate(189.827468 322.182437)scale(0.1 -0.1)">
       <defs>
        <path id="DejaVuSans-37" d="M 525 4666 
L 3525 4666 
L 3525 4397 
L 1831 0 
L 1172 0 
L 2766 4134 
L 525 4134 
L 525 4666 
z
" transform="scale(0.015625)"/>
       </defs>
       <use xlink:href="#DejaVuSans-37"/>
       <use xlink:href="#DejaVuSans-35" x="63.623047"/>
      </g>
     </g>
    </g>
    <g id="xtick_5">
     <g id="line2d_5">
      <g>
       <use xlink:href="#m207ba4c920" x="236.975715" y="307.584" style="stroke: #000000; stroke-width: 0.8"/>
      </g>
     </g>
     <g id="text_5">
      <!-- 100 -->
      <g transform="translate(227.431965 322.182437)scale(0.1 -0.1)">
       <defs>
        <path id="DejaVuSans-31" d="M 794 531 
L 1825 531 
L 1825 4091 
L 703 3866 
L 703 4441 
L 1819 4666 
L 2450 4666 
L 2450 531 
L 3481 531 
L 3481 0 
L 794 0 
L 794 531 
z
" transform="scale(0.015625)"/>
       </defs>
       <use xlink:href="#DejaVuSans-31"/>
       <use xlink:href="#DejaVuSans-30" x="63.623047"/>
       <use xlink:href="#DejaVuSans-30" x="127.246094"/>
      </g>
     </g>
    </g>
    <g id="xtick_6">
     <g id="line2d_6">
      <g>
       <use xlink:href="#m207ba4c920" x="277.761462" y="307.584" style="stroke: #000000; stroke-width: 0.8"/>
      </g>
     </g>
     <g id="text_6">
      <!-- 125 -->
      <g transform="translate(268.217712 322.182437)scale(0.1 -0.1)">
       <use xlink:href="#DejaVuSans-31"/>
       <use xlink:href="#DejaVuSans-32" x="63.623047"/>
       <use xlink:href="#DejaVuSans-35" x="127.246094"/>
      </g>
     </g>
    </g>
    <g id="xtick_7">
     <g id="line2d_7">
      <g>
       <use xlink:href="#m207ba4c920" x="318.547209" y="307.584" style="stroke: #000000; stroke-width: 0.8"/>
      </g>
     </g>
     <g id="text_7">
      <!-- 150 -->
      <g transform="translate(309.003459 322.182437)scale(0.1 -0.1)">
       <use xlink:href="#DejaVuSans-31"/>
       <use xlink:href="#DejaVuSans-35" x="63.623047"/>
       <use xlink:href="#DejaVuSans-30" x="127.246094"/>
      </g>
     </g>
    </g>
    <g id="xtick_8">
     <g id="line2d_8">
      <g>
       <use xlink:href="#m207ba4c920" x="359.332956" y="307.584" style="stroke: #000000; stroke-width: 0.8"/>
      </g>
     </g>
     <g id="text_8">
      <!-- 175 -->
      <g transform="translate(349.789206 322.182437)scale(0.1 -0.1)">
       <use xlink:href="#DejaVuSans-31"/>
       <use xlink:href="#DejaVuSans-37" x="63.623047"/>
       <use xlink:href="#DejaVuSans-35" x="127.246094"/>
      </g>
     </g>
    </g>
    <g id="xtick_9">
     <g id="line2d_9">
      <g>
       <use xlink:href="#m207ba4c920" x="400.118703" y="307.584" style="stroke: #000000; stroke-width: 0.8"/>
      </g>
     </g>
     <g id="text_9">
      <!-- 200 -->
      <g transform="translate(390.574953 322.182437)scale(0.1 -0.1)">
       <use xlink:href="#DejaVuSans-32"/>
       <use xlink:href="#DejaVuSans-30" x="63.623047"/>
       <use xlink:href="#DejaVuSans-30" x="127.246094"/>
      </g>
     </g>
    </g>
   </g>
   <g id="matplotlib.axis_2">
    <g id="ytick_1">
     <g id="line2d_10">
      <defs>
       <path id="m59971683ef" d="M 0 0 
L -3.5 0 
" style="stroke: #000000; stroke-width: 0.8"/>
      </defs>
      <g>
       <use xlink:href="#m59971683ef" x="57.6" y="276.389053" style="stroke: #000000; stroke-width: 0.8"/>
      </g>
     </g>
     <g id="text_10">
      <!-- 2057.5 -->
      <g transform="translate(15.609375 280.188271)scale(0.1 -0.1)">
       <defs>
        <path id="DejaVuSans-2e" d="M 684 794 
L 1344 794 
L 1344 0 
L 684 0 
L 684 794 
z
" transform="scale(0.015625)"/>
       </defs>
       <use xlink:href="#DejaVuSans-32"/>
       <use xlink:href="#DejaVuSans-30" x="63.623047"/>
       <use xlink:href="#DejaVuSans-35" x="127.246094"/>
       <use xlink:href="#DejaVuSans-37" x="190.869141"/>
       <use xlink:href="#DejaVuSans-2e" x="254.492188"/>
       <use xlink:href="#DejaVuSans-35" x="286.279297"/>
      </g>
     </g>
    </g>
    <g id="ytick_2">
     <g id="line2d_11">
      <g>
       <use xlink:href="#m59971683ef" x="57.6" y="244.557474" style="stroke: #000000; stroke-width: 0.8"/>
      </g>
     </g>
     <g id="text_11">
      <!-- 2060.0 -->
      <g transform="translate(15.609375 248.356692)scale(0.1 -0.1)">
       <defs>
        <path id="DejaVuSans-36" d="M 2113 2584 
Q 1688 2584 1439 2293 
Q 1191 2003 1191 1497 
Q 1191 994 1439 701 
Q 1688 409 2113 409 
Q 2538 409 2786 701 
Q 3034 994 3034 1497 
Q 3034 2003 2786 2293 
Q 2538 2584 2113 2584 
z
M 3366 4563 
L 3366 3988 
Q 3128 4100 2886 4159 
Q 2644 4219 2406 4219 
Q 1781 4219 1451 3797 
Q 1122 3375 1075 2522 
Q 1259 2794 1537 2939 
Q 1816 3084 2150 3084 
Q 2853 3084 3261 2657 
Q 3669 2231 3669 1497 
Q 3669 778 3244 343 
Q 2819 -91 2113 -91 
Q 1303 -91 875 529 
Q 447 1150 447 2328 
Q 447 3434 972 4092 
Q 1497 4750 2381 4750 
Q 2619 4750 2861 4703 
Q 3103 4656 3366 4563 
z
" transform="scale(0.015625)"/>
       </defs>
       <use xlink:href="#DejaVuSans-32"/>
       <use xlink:href="#DejaVuSans-30" x="63.623047"/>
       <use xlink:href="#DejaVuSans-36" x="127.246094"/>
       <use xlink:href="#DejaVuSans-30" x="190.869141"/>
       <use xlink:href="#DejaVuSans-2e" x="254.492188"/>
       <use xlink:href="#DejaVuSans-30" x="286.279297"/>
      </g>
     </g>
    </g>
    <g id="ytick_3">
     <g id="line2d_12">
      <g>
       <use xlink:href="#m59971683ef" x="57.6" y="212.725895" style="stroke: #000000; stroke-width: 0.8"/>
      </g>
     </g>
     <g id="text_12">
      <!-- 2062.5 -->
      <g transform="translate(15.609375 216.525113)scale(0.1 -0.1)">
       <use xlink:href="#DejaVuSans-32"/>
       <use xlink:href="#DejaVuSans-30" x="63.623047"/>
       <use xlink:href="#DejaVuSans-36" x="127.246094"/>
       <use xlink:href="#DejaVuSans-32" x="190.869141"/>
       <use xlink:href="#DejaVuSans-2e" x="254.492188"/>
       <use xlink:href="#DejaVuSans-35" x="286.279297"/>
      </g>
     </g>
    </g>
    <g id="ytick_4">
     <g id="line2d_13">
      <g>
       <use xlink:href="#m59971683ef" x="57.6" y="180.894316" style="stroke: #000000; stroke-width: 0.8"/>
      </g>
     </g>
     <g id="text_13">
      <!-- 2065.0 -->
      <g transform="translate(15.609375 184.693535)scale(0.1 -0.1)">
       <use xlink:href="#DejaVuSans-32"/>
       <use xlink:href="#DejaVuSans-30" x="63.623047"/>
       <use xlink:href="#DejaVuSans-36" x="127.246094"/>
       <use xlink:href="#DejaVuSans-35" x="190.869141"/>
       <use xlink:href="#DejaVuSans-2e" x="254.492188"/>
       <use xlink:href="#DejaVuSans-30" x="286.279297"/>
      </g>
     </g>
    </g>
    <g id="ytick_5">
     <g id="line2d_14">
      <g>
       <use xlink:href="#m59971683ef" x="57.6" y="149.062737" style="stroke: #000000; stroke-width: 0.8"/>
      </g>
     </g>
     <g id="text_14">
      <!-- 2067.5 -->
      <g transform="translate(15.609375 152.861956)scale(0.1 -0.1)">
       <use xlink:href="#DejaVuSans-32"/>
       <use xlink:href="#DejaVuSans-30" x="63.623047"/>
       <use xlink:href="#DejaVuSans-36" x="127.246094"/>
       <use xlink:href="#DejaVuSans-37" x="190.869141"/>
       <use xlink:href="#DejaVuSans-2e" x="254.492188"/>
       <use xlink:href="#DejaVuSans-35" x="286.279297"/>
      </g>
     </g>
    </g>
    <g id="ytick_6">
     <g id="line2d_15">
      <g>
       <use xlink:href="#m59971683ef" x="57.6" y="117.231158" style="stroke: #000000; stroke-width: 0.8"/>
      </g>
     </g>
     <g id="text_15">
      <!-- 2070.0 -->
      <g transform="translate(15.609375 121.030377)scale(0.1 -0.1)">
       <use xlink:href="#DejaVuSans-32"/>
       <use xlink:href="#DejaVuSans-30" x="63.623047"/>
       <use xlink:href="#DejaVuSans-37" x="127.246094"/>
       <use xlink:href="#DejaVuSans-30" x="190.869141"/>
       <use xlink:href="#DejaVuSans-2e" x="254.492188"/>
       <use xlink:href="#DejaVuSans-30" x="286.279297"/>
      </g>
     </g>
    </g>
    <g id="ytick_7">
     <g id="line2d_16">
      <g>
       <use xlink:href="#m59971683ef" x="57.6" y="85.399579" style="stroke: #000000; stroke-width: 0.8"/>
      </g>
     </g>
     <g id="text_16">
      <!-- 2072.5 -->
      <g transform="translate(15.609375 89.198798)scale(0.1 -0.1)">
       <use xlink:href="#DejaVuSans-32"/>
       <use xlink:href="#DejaVuSans-30" x="63.623047"/>
       <use xlink:href="#DejaVuSans-37" x="127.246094"/>
       <use xlink:href="#DejaVuSans-32" x="190.869141"/>
       <use xlink:href="#DejaVuSans-2e" x="254.492188"/>
       <use xlink:href="#DejaVuSans-35" x="286.279297"/>
      </g>
     </g>
    </g>
    <g id="ytick_8">
     <g id="line2d_17">
      <g>
       <use xlink:href="#m59971683ef" x="57.6" y="53.568" style="stroke: #000000; stroke-width: 0.8"/>
      </g>
     </g>
     <g id="text_17">
      <!-- 2075.0 -->
      <g transform="translate(15.609375 57.367219)scale(0.1 -0.1)">
       <use xlink:href="#DejaVuSans-32"/>
       <use xlink:href="#DejaVuSans-30" x="63.623047"/>
       <use xlink:href="#DejaVuSans-37" x="127.246094"/>
       <use xlink:href="#DejaVuSans-35" x="190.869141"/>
       <use xlink:href="#DejaVuSans-2e" x="254.492188"/>
       <use xlink:href="#DejaVuSans-30" x="286.279297"/>
      </g>
     </g>
    </g>
   </g>
   <g id="line2d_18">
    <path d="M 73.832727 129.963789 
L 75.464157 129.963789 
L 75.464157 206.359579 
L 77.095587 206.359579 
L 77.095587 104.498526 
L 78.727017 104.498526 
L 78.727017 142.696421 
L 80.358447 142.696421 
L 80.358447 155.429053 
L 81.989877 155.429053 
L 81.989877 91.765895 
L 83.621307 91.765895 
L 83.621307 193.626947 
L 85.252736 193.626947 
L 85.252736 168.161684 
L 86.884166 168.161684 
L 86.884166 104.498526 
L 88.515596 104.498526 
L 88.515596 155.429053 
L 90.147026 155.429053 
L 90.147026 168.161684 
L 91.778456 168.161684 
L 91.778456 142.696421 
L 93.409886 142.696421 
L 93.409886 168.161684 
L 96.672746 168.161684 
L 96.672746 155.429053 
L 98.304175 155.429053 
L 98.304175 180.894316 
L 99.935605 180.894316 
L 99.935605 117.231158 
L 101.567035 117.231158 
L 101.567035 168.161684 
L 103.198465 168.161684 
L 103.198465 180.894316 
L 104.829895 180.894316 
L 104.829895 91.765895 
L 106.461325 91.765895 
L 106.461325 244.557474 
L 108.092755 244.557474 
L 108.092755 206.359579 
L 109.724185 206.359579 
L 109.724185 168.161684 
L 114.618474 168.161684 
L 114.618474 155.429053 
L 116.249904 155.429053 
L 116.249904 180.894316 
L 117.881334 180.894316 
L 117.881334 142.696421 
L 119.512764 142.696421 
L 119.512764 180.894316 
L 121.144194 180.894316 
L 121.144194 142.696421 
L 124.407053 142.696421 
L 124.407053 168.161684 
L 126.038483 168.161684 
L 126.038483 117.231158 
L 129.301343 117.231158 
L 129.301343 142.696421 
L 132.564203 142.696421 
L 132.564203 129.963789 
L 134.195633 129.963789 
L 134.195633 117.231158 
L 135.827063 117.231158 
L 135.827063 193.626947 
L 137.458492 193.626947 
L 137.458492 79.033263 
L 139.089922 79.033263 
L 139.089922 142.696421 
L 140.721352 142.696421 
L 140.721352 193.626947 
L 142.352782 193.626947 
L 142.352782 79.033263 
L 143.984212 79.033263 
L 143.984212 180.894316 
L 145.615642 180.894316 
L 145.615642 193.626947 
L 147.247072 193.626947 
L 147.247072 117.231158 
L 148.878502 117.231158 
L 148.878502 129.963789 
L 150.509931 129.963789 
L 150.509931 142.696421 
L 152.141361 142.696421 
L 152.141361 168.161684 
L 153.772791 168.161684 
L 153.772791 129.963789 
L 155.404221 129.963789 
L 155.404221 168.161684 
L 157.035651 168.161684 
L 157.035651 155.429053 
L 158.667081 155.429053 
L 158.667081 142.696421 
L 160.298511 142.696421 
L 160.298511 104.498526 
L 161.929941 104.498526 
L 161.929941 193.626947 
L 163.56137 193.626947 
L 163.56137 129.963789 
L 165.1928 129.963789 
L 165.1928 117.231158 
L 166.82423 117.231158 
L 166.82423 142.696421 
L 168.45566 142.696421 
L 168.45566 117.231158 
L 170.08709 117.231158 
L 170.08709 104.498526 
L 171.71852 104.498526 
L 171.71852 168.161684 
L 173.34995 168.161684 
L 173.34995 129.963789 
L 174.98138 129.963789 
L 174.98138 104.498526 
L 178.244239 104.498526 
L 178.244239 168.161684 
L 179.875669 168.161684 
L 179.875669 129.963789 
L 181.507099 129.963789 
L 181.507099 142.696421 
L 183.138529 142.696421 
L 183.138529 168.161684 
L 184.769959 168.161684 
L 184.769959 66.300632 
L 186.401389 66.300632 
L 186.401389 168.161684 
L 188.032819 168.161684 
L 188.032819 180.894316 
L 189.664249 180.894316 
L 189.664249 91.765895 
L 191.295678 91.765895 
L 191.295678 155.429053 
L 192.927108 155.429053 
L 192.927108 168.161684 
L 194.558538 168.161684 
L 194.558538 193.626947 
L 196.189968 193.626947 
L 196.189968 155.429053 
L 197.821398 155.429053 
L 197.821398 142.696421 
L 199.452828 142.696421 
L 199.452828 155.429053 
L 201.084258 155.429053 
L 201.084258 168.161684 
L 202.715688 168.161684 
L 202.715688 129.963789 
L 204.347117 129.963789 
L 204.347117 142.696421 
L 205.978547 142.696421 
L 205.978547 180.894316 
L 207.609977 180.894316 
L 207.609977 155.429053 
L 209.241407 155.429053 
L 209.241407 168.161684 
L 210.872837 168.161684 
L 210.872837 129.963789 
L 212.504267 129.963789 
L 212.504267 104.498526 
L 215.767127 104.498526 
L 215.767127 117.231158 
L 217.398556 117.231158 
L 217.398556 104.498526 
L 219.029986 104.498526 
L 219.029986 155.429053 
L 220.661416 155.429053 
L 220.661416 180.894316 
L 222.292846 180.894316 
L 222.292846 104.498526 
L 225.555706 104.498526 
L 225.555706 168.161684 
L 227.187136 168.161684 
L 227.187136 91.765895 
L 228.818566 91.765895 
L 228.818566 104.498526 
L 230.449995 104.498526 
L 230.449995 168.161684 
L 232.081425 168.161684 
L 232.081425 53.568 
L 233.712855 53.568 
L 233.712855 129.963789 
L 235.344285 129.963789 
L 235.344285 117.231158 
L 236.975715 117.231158 
L 236.975715 129.963789 
L 238.607145 129.963789 
L 238.607145 168.161684 
L 240.238575 168.161684 
L 240.238575 155.429053 
L 241.870005 155.429053 
L 241.870005 117.231158 
L 243.501434 117.231158 
L 243.501434 155.429053 
L 245.132864 155.429053 
L 245.132864 142.696421 
L 246.764294 142.696421 
L 246.764294 155.429053 
L 248.395724 155.429053 
L 248.395724 193.626947 
L 250.027154 193.626947 
L 250.027154 142.696421 
L 251.658584 142.696421 
L 251.658584 180.894316 
L 253.290014 180.894316 
L 253.290014 155.429053 
L 254.921444 155.429053 
L 254.921444 117.231158 
L 256.552873 117.231158 
L 256.552873 155.429053 
L 258.184303 155.429053 
L 258.184303 117.231158 
L 259.815733 117.231158 
L 259.815733 104.498526 
L 261.447163 104.498526 
L 261.447163 117.231158 
L 263.078593 117.231158 
L 263.078593 155.429053 
L 264.710023 155.429053 
L 264.710023 104.498526 
L 266.341453 104.498526 
L 266.341453 129.963789 
L 267.972883 129.963789 
L 267.972883 168.161684 
L 269.604312 168.161684 
L 269.604312 104.498526 
L 271.235742 104.498526 
L 271.235742 168.161684 
L 272.867172 168.161684 
L 272.867172 155.429053 
L 274.498602 155.429053 
L 274.498602 66.300632 
L 276.130032 66.300632 
L 276.130032 142.696421 
L 277.761462 142.696421 
L 277.761462 155.429053 
L 279.392892 155.429053 
L 279.392892 66.300632 
L 281.024322 66.300632 
L 281.024322 155.429053 
L 282.655751 155.429053 
L 282.655751 180.894316 
L 284.287181 180.894316 
L 284.287181 104.498526 
L 285.918611 104.498526 
L 285.918611 155.429053 
L 287.550041 155.429053 
L 287.550041 193.626947 
L 289.181471 193.626947 
L 289.181471 129.963789 
L 290.812901 129.963789 
L 290.812901 180.894316 
L 292.444331 180.894316 
L 292.444331 142.696421 
L 294.075761 142.696421 
L 294.075761 206.359579 
L 295.70719 206.359579 
L 295.70719 155.429053 
L 297.33862 155.429053 
L 297.33862 117.231158 
L 298.97005 117.231158 
L 298.97005 295.488 
L 300.60148 295.488 
L 300.60148 155.429053 
L 303.86434 155.429053 
L 303.86434 168.161684 
L 305.49577 168.161684 
L 305.49577 219.092211 
L 307.1272 219.092211 
L 307.1272 142.696421 
L 308.75863 142.696421 
L 308.75863 180.894316 
L 310.390059 180.894316 
L 310.390059 117.231158 
L 312.021489 117.231158 
L 312.021489 104.498526 
L 313.652919 104.498526 
L 313.652919 129.963789 
L 315.284349 129.963789 
L 315.284349 117.231158 
L 316.915779 117.231158 
L 316.915779 180.894316 
L 318.547209 180.894316 
L 318.547209 168.161684 
L 320.178639 168.161684 
L 320.178639 129.963789 
L 321.810069 129.963789 
L 321.810069 142.696421 
L 323.441498 142.696421 
L 323.441498 155.429053 
L 326.704358 155.429053 
L 326.704358 91.765895 
L 328.335788 91.765895 
L 328.335788 180.894316 
L 329.967218 180.894316 
L 329.967218 79.033263 
L 331.598648 79.033263 
L 331.598648 129.963789 
L 333.230078 129.963789 
L 333.230078 168.161684 
L 334.861508 168.161684 
L 334.861508 79.033263 
L 336.492937 79.033263 
L 336.492937 129.963789 
L 338.124367 129.963789 
L 338.124367 180.894316 
L 339.755797 180.894316 
L 339.755797 53.568 
L 341.387227 53.568 
L 341.387227 155.429053 
L 343.018657 155.429053 
L 343.018657 180.894316 
L 344.650087 180.894316 
L 344.650087 104.498526 
L 346.281517 104.498526 
L 346.281517 168.161684 
L 349.544376 168.161684 
L 349.544376 180.894316 
L 351.175806 180.894316 
L 351.175806 168.161684 
L 354.438666 168.161684 
L 354.438666 155.429053 
L 356.070096 155.429053 
L 356.070096 168.161684 
L 357.701526 168.161684 
L 357.701526 155.429053 
L 359.332956 155.429053 
L 359.332956 129.963789 
L 360.964386 129.963789 
L 360.964386 180.894316 
L 362.595815 180.894316 
L 362.595815 155.429053 
L 364.227245 155.429053 
L 364.227245 142.696421 
L 365.858675 142.696421 
L 365.858675 104.498526 
L 367.490105 104.498526 
L 367.490105 53.568 
L 369.121535 53.568 
L 369.121535 155.429053 
L 370.752965 155.429053 
L 370.752965 129.963789 
L 375.647254 129.963789 
L 375.647254 168.161684 
L 377.278684 168.161684 
L 377.278684 66.300632 
L 378.910114 66.300632 
L 378.910114 142.696421 
L 380.541544 142.696421 
L 380.541544 219.092211 
L 382.172974 219.092211 
L 382.172974 91.765895 
L 383.804404 91.765895 
L 383.804404 142.696421 
L 385.435834 142.696421 
L 385.435834 168.161684 
L 387.067264 168.161684 
L 387.067264 104.498526 
L 390.330123 104.498526 
L 390.330123 193.626947 
L 391.961553 193.626947 
L 391.961553 168.161684 
L 395.224413 168.161684 
L 395.224413 180.894316 
L 396.855843 180.894316 
L 396.855843 168.161684 
L 398.487273 168.161684 
L 398.487273 168.161684 
" clip-path="url(#pc2a9e37295)" style="fill: none; stroke: #1f77b4; stroke-width: 1.5; stroke-linecap: square"/>
   </g>
   <g id="patch_3">
    <path d="M 57.6 307.584 
L 57.6 41.472 
" style="fill: none; stroke: #000000; stroke-width: 0.8; stroke-linejoin: miter; stroke-linecap: square"/>
   </g>
   <g id="patch_4">
    <path d="M 414.72 307.584 
L 414.72 41.472 
" style="fill: none; stroke: #000000; stroke-width: 0.8; stroke-linejoin: miter; stroke-linecap: square"/>
   </g>
   <g id="patch_5">
    <path d="M 57.6 307.584 
L 414.72 307.584 
" style="fill: none; stroke: #000000; stroke-width: 0.8; stroke-linejoin: miter; stroke-linecap: square"/>
   </g>
   <g id="patch_6">
    <path d="M 57.6 41.472 
L 414.72 41.472 
" style="fill: none; stroke: #000000; stroke-width: 0.8; stroke-linejoin: miter; stroke-linecap: square"/>
   </g>
  </g>
 </g>
 <defs>
  <clipPath id="pc2a9e37295">
   <rect x="57.6" y="41.472" width="357.12" height="266.112"/>
  </clipPath>
 </defs>
</svg>
